<?xml version="1.0" standalone="no"?><svg xmlns:xlink="http://www.w3.org/1999/xlink" xmlns="http://www.w3.org/2000/svg" viewBox="0 0 1000 545.4636912958457" preserveAspectRatio="xMaxYMax slice"><g transform="scale(1.5719414734750596)"><rect x="0" y="0" width="636.1666666666667" height="347" fill="#ffffff"/><rect x="0" y="0" width="57.83" height="57.83" fill="#f7cab4"/><rect x="0" y="0" width="57.83" height="57.83" fill="#fffdfa"/><rect x="57.83" y="0" width="57.83" height="57.83" fill="#ef9264"/><rect x="57.83" y="0" width="57.83" height="57.83" fill="#f2a680"/><rect x="115.67" y="0" width="57.83" height="57.83" fill="#fff3e3"/><polygon points="115.67,0 173.5,0 115.67,57.83" fill="#f4b494"/><rect x="173.5" y="0" width="57.83" height="57.83" fill="#ffe6c7"/><rect x="173.5" y="0" width="57.83" height="57.83" fill="#fff3e4"/><rect x="231.33" y="0" width="57.83" height="57.83" fill="#fff4e5"/><rect x="231.33" y="0" width="57.83" height="57.83" fill="#fffbf5"/><rect x="289.17" y="0" width="57.83" height="57.83" fill="#f4b89a"/><path d="M 289.17 0 A 57.83 57.83 0 0 0 347 57.83 L 347 0" fill="#ffeed9"/><rect x="347" y="0" width="57.83" height="57.83" fill="#ffecd5"/><rect x="347" y="0" width="57.83" height="57.83" fill="#fff5e8"/><rect x="404.83" y="0" width="57.83" height="57.83" fill="#ffe8ca"/><polygon points="404.83,0 462.65999999999997,0 404.83,57.83" fill="#ffe7c9"/><rect x="462.67" y="0" width="57.83" height="57.83" fill="#ffe5c4"/><polygon points="520.5,0 520.5,57.83 462.67,57.83" fill="#fff1e0"/><rect x="520.5" y="0" width="57.83" height="57.83" fill="#ffedd6"/><rect x="520.5" y="0" width="57.83" height="57.83" fill="#fefbf9"/><rect x="578.33" y="0" width="57.83" height="57.83" fill="#f9d9c8"/><rect x="578.33" y="0" width="57.83" height="57.83" fill="#fff4e6"/><rect x="0" y="57.83" width="57.83" height="57.83" fill="#fadbcb"/><polygon points="0,57.83 57.83,57.83 0,115.66" fill="#ffe8ca"/><rect x="57.83" y="57.83" width="57.83" height="57.83" fill="#fce8de"/><path d="M 57.83 115.66 A 57.83 57.83 0 0 0 115.66 57.83 L 57.83 57.83" fill="#ffe7c9"/><rect x="115.67" y="57.83" width="57.83" height="57.83" fill="#fff6eb"/><path d="M 115.67 57.83 A 57.83 57.83 0 0 1 173.5 115.66 L 115.67 115.66" fill="#fdf3ee"/><rect x="173.5" y="57.83" width="57.83" height="57.83" fill="#fef9f6"/><rect x="173.5" y="57.83" width="57.83" height="57.83" fill="#fff4e6"/><rect x="231.33" y="57.83" width="57.83" height="57.83" fill="#f6c4ac"/><rect x="231.33" y="57.83" width="57.83" height="57.83" fill="#fdf0ea"/><rect x="289.17" y="57.83" width="57.83" height="57.83" fill="#ef9365"/><path d="M 289.17 115.66 A 57.83 57.83 0 0 1  347 57.83 L 289.17 115.66 A 57.83 57.83 0 0 0 347 57.83" fill="#f1a57f"/><rect x="347" y="57.83" width="57.83" height="57.83" fill="#fffcf9"/><polygon points="347,57.83 404.83,57.83 404.83,115.66" fill="#ef9163"/><rect x="404.83" y="57.83" width="57.83" height="57.83" fill="#fbe6db"/><rect x="404.83" y="57.83" width="57.83" height="57.83" fill="#fff1df"/><rect x="462.67" y="57.83" width="57.83" height="57.83" fill="#fbe2d6"/><path d="M 462.67 57.83 A 57.83 57.83 0 0 1 520.5 115.66 L 462.67 115.66" fill="#f9d8c8"/><rect x="520.5" y="57.83" width="57.83" height="57.83" fill="#fff8f0"/><rect x="520.5" y="57.83" width="57.83" height="57.83" fill="#fff6ec"/><rect x="578.33" y="57.83" width="57.83" height="57.83" fill="#ee9060"/><rect x="578.33" y="57.83" width="57.83" height="57.83" fill="#f8d1be"/><rect x="0" y="115.67" width="57.83" height="57.83" fill="#fff0dd"/><polygon points="0,115.67 57.83,115.67 0,173.5" fill="#fefaf7"/><rect x="57.83" y="115.67" width="57.83" height="57.83" fill="#ffe7c9"/><polygon points="57.83,115.67 115.66,173.5 57.83,173.5" fill="#fff2e3"/><rect x="115.67" y="115.67" width="57.83" height="57.83" fill="#f5bda2"/><path d="M 115.67 115.67 A 57.83 57.83 0 0 1 173.5 173.5 L 115.67 173.5" fill="#ffe8cc"/><rect x="173.5" y="115.67" width="57.83" height="57.83" fill="#ffedd7"/><polygon points="173.5,115.67 231.32999999999998,115.67 173.5,173.5" fill="#f3b08e"/><rect x="231.33" y="115.67" width="57.83" height="57.83" fill="#fff3e4"/><rect x="231.33" y="115.67" width="57.83" height="57.83" fill="#ffe8cb"/><rect x="289.17" y="115.67" width="57.83" height="57.83" fill="#f5bda1"/><path d="M 289.17 115.67 A 57.83 57.83 0 0 1  347 173.5 L 289.17 115.67 A 57.83 57.83 0 0 0 347 173.5" fill="#f4b99b"/><rect x="347" y="115.67" width="57.83" height="57.83" fill="#fff8ee"/><rect x="347" y="115.67" width="57.83" height="57.83" fill="#f9d8c8"/><rect x="404.83" y="115.67" width="57.83" height="57.83" fill="#ef9466"/><rect x="404.83" y="115.67" width="57.83" height="57.83" fill="#fff2e2"/><rect x="462.67" y="115.67" width="57.83" height="57.83" fill="#f5ba9c"/><rect x="462.67" y="115.67" width="57.83" height="57.83" fill="#f1a077"/><rect x="520.5" y="115.67" width="57.83" height="57.83" fill="#f09e75"/><path d="M 520.5 173.5 A 57.83 57.83 0 0 1  578.33 115.67 L 578.33 173.5" fill="#fffaf4"/><rect x="578.33" y="115.67" width="57.83" height="57.83" fill="#ffebd1"/><rect x="578.33" y="115.67" width="57.83" height="57.83" fill="#f8cfbb"/><rect x="0" y="173.5" width="57.83" height="57.83" fill="#fffaf4"/><path d="M 0 173.5 A 57.83 57.83 0 0 1  57.83 231.32999999999998 L 0 173.5 A 57.83 57.83 0 0 0 57.83 231.32999999999998" fill="#f6c4ab"/><rect x="57.83" y="173.5" width="57.83" height="57.83" fill="#fffcf9"/><path d="M 57.83 231.32999999999998 A 57.83 57.83 0 0 1  115.66 173.5 L 57.83 231.32999999999998 A 57.83 57.83 0 0 0 115.66 173.5" fill="#fff2e1"/><rect x="115.67" y="173.5" width="57.83" height="57.83" fill="#f2a781"/><polygon points="115.67,173.5 173.5,173.5 115.67,231.32999999999998" fill="#ffefdb"/><rect x="173.5" y="173.5" width="57.83" height="57.83" fill="#ffe9cc"/><path d="M 173.5 231.32999999999998 A 57.83 57.83 0 0 0 231.32999999999998 173.5 L 173.5 173.5" fill="#ffebd1"/><rect x="231.33" y="173.5" width="57.83" height="57.83" fill="#f3af8d"/><rect x="231.33" y="173.5" width="57.83" height="57.83" fill="#f9d8c7"/><rect x="289.17" y="173.5" width="57.83" height="57.83" fill="#fff9f2"/><rect x="289.17" y="173.5" width="57.83" height="57.83" fill="#ef9568"/><rect x="347" y="173.5" width="57.83" height="57.83" fill="#ed8754"/><path d="M 347 173.5 A 57.83 57.83 0 0 1  404.83 231.32999999999998 L 347 173.5 A 57.83 57.83 0 0 0 404.83 231.32999999999998" fill="#ffe8ca"/><rect x="404.83" y="173.5" width="57.83" height="57.83" fill="#fce9df"/><polygon points="404.83,173.5 462.65999999999997,231.32999999999998 404.83,231.32999999999998" fill="#fcede5"/><rect x="462.67" y="173.5" width="57.83" height="57.83" fill="#fffcf9"/><polygon points="462.67,173.5 520.5,173.5 520.5,231.32999999999998" fill="#f8d3c1"/><rect x="520.5" y="173.5" width="57.83" height="57.83" fill="#fff0de"/><rect x="520.5" y="173.5" width="57.83" height="57.83" fill="#f3ae8b"/><rect x="578.33" y="173.5" width="57.83" height="57.83" fill="#ffefdc"/><rect x="578.33" y="173.5" width="57.83" height="57.83" fill="#fff0dd"/><rect x="0" y="231.33" width="57.83" height="57.83" fill="#fffffe"/><polygon points="0,231.33 57.83,289.16 0,289.16" fill="#fff3e5"/><rect x="57.83" y="231.33" width="57.83" height="57.83" fill="#ed8754"/><polygon points="115.66,231.33 115.66,289.16 57.83,289.16" fill="#f6c5ac"/><rect x="115.67" y="231.33" width="57.83" height="57.83" fill="#fbe3d7"/><polygon points="115.67,231.33 173.5,231.33 115.67,289.16" fill="#ef9366"/><rect x="173.5" y="231.33" width="57.83" height="57.83" fill="#fff9f2"/><path d="M 173.5 289.16 A 57.83 57.83 0 0 1  231.32999999999998 231.33 L 173.5 289.16 A 57.83 57.83 0 0 0 231.32999999999998 231.33" fill="#fce8de"/><rect x="231.33" y="231.33" width="57.83" height="57.83" fill="#f7cab3"/><rect x="231.33" y="231.33" width="57.83" height="57.83" fill="#f4b596"/><rect x="289.17" y="231.33" width="57.83" height="57.83" fill="#f5bb9e"/><path d="M 289.17 231.33 A 57.83 57.83 0 0 0 347 289.16 L 347 231.33" fill="#fdf0ea"/><rect x="347" y="231.33" width="57.83" height="57.83" fill="#fff2e1"/><polygon points="347,231.33 404.83,231.33 404.83,289.16" fill="#fff4e6"/><rect x="404.83" y="231.33" width="57.83" height="57.83" fill="#ffeacf"/><rect x="404.83" y="231.33" width="57.83" height="57.83" fill="#fffffe"/><rect x="462.67" y="231.33" width="57.83" height="57.83" fill="#fff6ea"/><rect x="462.67" y="231.33" width="57.83" height="57.83" fill="#ffeed9"/><rect x="520.5" y="231.33" width="57.83" height="57.83" fill="#ffecd4"/><polygon points="578.33,231.33 578.33,289.16 520.5,289.16" fill="#f1a27a"/><rect x="578.33" y="231.33" width="57.83" height="57.83" fill="#f3ad8a"/><polygon points="578.33,231.33 636.1600000000001,289.16 578.33,289.16" fill="#ed8957"/><rect x="0" y="289.17" width="57.83" height="57.83" fill="#ffe6c8"/><rect x="0" y="289.17" width="57.83" height="57.83" fill="#fffaf5"/><rect x="57.83" y="289.17" width="57.83" height="57.83" fill="#fdefe8"/><rect x="57.83" y="289.17" width="57.83" height="57.83" fill="#fefaf8"/><rect x="115.67" y="289.17" width="57.83" height="57.83" fill="#ffefdb"/><path d="M 115.67 347 A 57.83 57.83 0 0 1  173.5 289.17 L 173.5 347" fill="#ffe5c5"/><rect x="173.5" y="289.17" width="57.83" height="57.83" fill="#fffefd"/><rect x="173.5" y="289.17" width="57.83" height="57.83" fill="#fff5e8"/><rect x="231.33" y="289.17" width="57.83" height="57.83" fill="#ffeed9"/><rect x="231.33" y="289.17" width="57.83" height="57.83" fill="#ef9467"/><rect x="289.17" y="289.17" width="57.83" height="57.83" fill="#ffeed8"/><path d="M 289.17 347 A 57.83 57.83 0 0 1  347 289.17 L 347 347" fill="#fff2e2"/><rect x="347" y="289.17" width="57.83" height="57.83" fill="#fadccd"/><rect x="347" y="289.17" width="57.83" height="57.83" fill="#fffcf8"/><rect x="404.83" y="289.17" width="57.83" height="57.83" fill="#f7cab4"/><path d="M 404.83 347 A 57.83 57.83 0 0 0 462.65999999999997 289.17 L 404.83 289.17" fill="#ef9568"/><rect x="462.67" y="289.17" width="57.83" height="57.83" fill="#ef966a"/><polygon points="462.67,289.17 520.5,289.17 462.67,347" fill="#ffecd4"/><rect x="520.5" y="289.17" width="57.83" height="57.83" fill="#f3b08f"/><rect x="520.5" y="289.17" width="57.83" height="57.83" fill="#fef5f1"/><rect x="578.33" y="289.17" width="57.83" height="57.83" fill="#ffe6c7"/><polygon points="578.33,289.17 636.1600000000001,289.17 578.33,347" fill="#ffe5c3"/></g></svg>